<svg xmlns="http://www.w3.org/2000/svg" viewBox="0 0 600 400">
  <!-- Fondo -->
  <rect width="600" height="400" fill="#87CEEB" rx="20" ry="20"/>
  
  <!-- Título del proyecto -->
  <text x="300" y="60" font-family="Arial, sans-serif" font-size="40" font-weight="bold" text-anchor="middle" fill="#333">Proyecto C</text>
  <text x="300" y="100" font-family="Arial, sans-serif" font-size="20" text-anchor="middle" fill="#333">Modelo de Machine Learning</text>
  
  <!-- Representación del proyecto (Modelo de ML) -->
  <g transform="translate(300, 220)">
    <!-- Red neuronal -->
    <!-- Capa de entrada -->
    <circle cx="-150" cy="-60" r="15" fill="#4CAF50" stroke="#333" stroke-width="2"/>
    <circle cx="-150" cy="-20" r="15" fill="#4CAF50" stroke="#333" stroke-width="2"/>
    <circle cx="-150" cy="20" r="15" fill="#4CAF50" stroke="#333" stroke-width="2"/>
    <circle cx="-150" cy="60" r="15" fill="#4CAF50" stroke="#333" stroke-width="2"/>
    
    <!-- Capa oculta 1 -->
    <circle cx="-50" cy="-80" r="15" fill="#2196F3" stroke="#333" stroke-width="2"/>
    <circle cx="-50" cy="-40" r="15" fill="#2196F3" stroke="#333" stroke-width="2"/>
    <circle cx="-50" cy="0" r="15" fill="#2196F3" stroke="#333" stroke-width="2"/>
    <circle cx="-50" cy="40" r="15" fill="#2196F3" stroke="#333" stroke-width="2"/>
    <circle cx="-50" cy="80" r="15" fill="#2196F3" stroke="#333" stroke-width="2"/>
    
    <!-- Capa oculta 2 -->
    <circle cx="50" cy="-60" r="15" fill="#FFC107" stroke="#333" stroke-width="2"/>
    <circle cx="50" cy="-20" r="15" fill="#FFC107" stroke="#333" stroke-width="2"/>
    <circle cx="50" cy="20" r="15" fill="#FFC107" stroke="#333" stroke-width="2"/>
    <circle cx="50" cy="60" r="15" fill="#FFC107" stroke="#333" stroke-width="2"/>
    
    <!-- Capa de salida -->
    <circle cx="150" cy="-30" r="15" fill="#E91E63" stroke="#333" stroke-width="2"/>
    <circle cx="150" cy="30" r="15" fill="#E91E63" stroke="#333" stroke-width="2"/>
    
    <!-- Conexiones entre capas -->
    <!-- De entrada a oculta 1 -->
    <line x1="-135" y1="-60" x2="-65" y2="-80" stroke="#333" stroke-width="1" opacity="0.5"/>
    <line x1="-135" y1="-60" x2="-65" y2="-40" stroke="#333" stroke-width="1" opacity="0.5"/>
    <line x1="-135" y1="-60" x2="-65" y2="0" stroke="#333" stroke-width="1" opacity="0.5"/>
    <line x1="-135" y1="-60" x2="-65" y2="40" stroke="#333" stroke-width="1" opacity="0.5"/>
    <line x1="-135" y1="-60" x2="-65" y2="80" stroke="#333" stroke-width="1" opacity="0.5"/>
    
    <line x1="-135" y1="-20" x2="-65" y2="-80" stroke="#333" stroke-width="1" opacity="0.5"/>
    <line x1="-135" y1="-20" x2="-65" y2="-40" stroke="#333" stroke-width="1" opacity="0.5"/>
    <line x1="-135" y1="-20" x2="-65" y2="0" stroke="#333" stroke-width="1" opacity="0.5"/>
    <line x1="-135" y1="-20" x2="-65" y2="40" stroke="#333" stroke-width="1" opacity="0.5"/>
    <line x1="-135" y1="-20" x2="-65" y2="80" stroke="#333" stroke-width="1" opacity="0.5"/>
    
    <line x1="-135" y1="20" x2="-65" y2="-80" stroke="#333" stroke-width="1" opacity="0.5"/>
    <line x1="-135" y1="20" x2="-65" y2="-40" stroke="#333" stroke-width="1" opacity="0.5"/>
    <line x1="-135" y1="20" x2="-65" y2="0" stroke="#333" stroke-width="1" opacity="0.5"/>
    <line x1="-135" y1="20" x2="-65" y2="40" stroke="#333" stroke-width="1" opacity="0.5"/>
    <line x1="-135" y1="20" x2="-65" y2="80" stroke="#333" stroke-width="1" opacity="0.5"/>
    
    <line x1="-135" y1="60" x2="-65" y2="-80" stroke="#333" stroke-width="1" opacity="0.5"/>
    <line x1="-135" y1="60" x2="-65" y2="-40" stroke="#333" stroke-width="1" opacity="0.5"/>
    <line x1="-135" y1="60" x2="-65" y2="0" stroke="#333" stroke-width="1" opacity="0.5"/>
    <line x1="-135" y1="60" x2="-65" y2="40" stroke="#333" stroke-width="1" opacity="0.5"/>
    <line x1="-135" y1="60" x2="-65" y2="80" stroke="#333" stroke-width="1" opacity="0.5"/>
    
    <!-- De oculta 1 a oculta 2 -->
    <line x1="-35" y1="-80" x2="35" y2="-60" stroke="#333" stroke-width="1" opacity="0.5"/>
    <line x1="-35" y1="-80" x2="35" y2="-20" stroke="#333" stroke-width="1" opacity="0.5"/>
    <line x1="-35" y1="-80" x2="35" y2="20" stroke="#333" stroke-width="1" opacity="0.5"/>
    <line x1="-35" y1="-80" x2="35" y2="60" stroke="#333" stroke-width="1" opacity="0.5"/>
    
    <line x1="-35" y1="-40" x2="35" y2="-60" stroke="#333" stroke-width="1" opacity="0.5"/>
    <line x1="-35" y1="-40" x2="35" y2="-20" stroke="#333" stroke-width="1" opacity="0.5"/>
    <line x1="-35" y1="-40" x2="35" y2="20" stroke="#333" stroke-width="1" opacity="0.5"/>
    <line x1="-35" y1="-40" x2="35" y2="60" stroke="#333" stroke-width="1" opacity="0.5"/>
    
    <line x1="-35" y1="0" x2="35" y2="-60" stroke="#333" stroke-width="1" opacity="0.5"/>
    <line x1="-35" y1="0" x2="35" y2="-20" stroke="#333" stroke-width="1" opacity="0.5"/>
    <line x1="-35" y1="0" x2="35" y2="20" stroke="#333" stroke-width="1" opacity="0.5"/>
    <line x1="-35" y1="0" x2="35" y2="60" stroke="#333" stroke-width="1" opacity="0.5"/>
    
    <line x1="-35" y1="40" x2="35" y2="-60" stroke="#333" stroke-width="1" opacity="0.5"/>
    <line x1="-35" y1="40" x2="35" y2="-20" stroke="#333" stroke-width="1" opacity="0.5"/>
    <line x1="-35" y1="40" x2="35" y2="20" stroke="#333" stroke-width="1" opacity="0.5"/>
    <line x1="-35" y1="40" x2="35" y2="60" stroke="#333" stroke-width="1" opacity="0.5"/>
    
    <line x1="-35" y1="80" x2="35" y2="-60" stroke="#333" stroke-width="1" opacity="0.5"/>
    <line x1="-35" y1="80" x2="35" y2="-20" stroke="#333" stroke-width="1" opacity="0.5"/>
    <line x1="-35" y1="80" x2="35" y2="20" stroke="#333" stroke-width="1" opacity="0.5"/>
    <line x1="-35" y1="80" x2="35" y2="60" stroke="#333" stroke-width="1" opacity="0.5"/>
    
    <!-- De oculta 2 a salida -->
    <line x1="65" y1="-60" x2="135" y2="-30" stroke="#333" stroke-width="1" opacity="0.5"/>
    <line x1="65" y1="-60" x2="135" y2="30" stroke="#333" stroke-width="1" opacity="0.5"/>
    
    <line x1="65" y1="-20" x2="135" y2="-30" stroke="#333" stroke-width="1" opacity="0.5"/>
    <line x1="65" y1="-20" x2="135" y2="30" stroke="#333" stroke-width="1" opacity="0.5"/>
    
    <line x1="65" y1="20" x2="135" y2="-30" stroke="#333" stroke-width="1" opacity="0.5"/>
    <line x1="65" y1="20" x2="135" y2="30" stroke="#333" stroke-width="1" opacity="0.5"/>
    
    <line x1="65" y1="60" x2="135" y2="-30" stroke="#333" stroke-width="1" opacity="0.5"/>
    <line x1="65" y1="60" x2="135" y2="30" stroke="#333" stroke-width="1" opacity="0.5"/>
    
    <!-- Etiquetas -->
    <text x="-150" y="-100" font-family="Arial, sans-serif" font-size="16" text-anchor="middle" fill="#333">Entrada</text>
    <text x="-50" y="-110" font-family="Arial, sans-serif" font-size="16" text-anchor="middle" fill="#333">Capa 1</text>
    <text x="50" y="-100" font-family="Arial, sans-serif" font-size="16" text-anchor="middle" fill="#333">Capa 2</text>
    <text x="150" y="-70" font-family="Arial, sans-serif" font-size="16" text-anchor="middle" fill="#333">Salida</text>
  </g>
  
  <!-- Descripción del proyecto -->
  <text x="300" y="360" font-family="Arial, sans-serif" font-size="16" text-anchor="middle" fill="#333">Predicción con 92% de precisión</text>
</svg>