<svg xmlns="http://www.w3.org/2000/svg" viewBox="0 0 600 400">
  <!-- Fondo -->
  <rect width="600" height="400" fill="#306998" rx="20" ry="20"/>
  
  <!-- Logo de Python -->
  <g transform="translate(150, 50) scale(0.8)">
    <!-- Parte azul -->
    <path d="M 184.61344,61.929363 C 184.61344,47.367213 180.46118,39.891193 172.15894,39.481813 C 168.81982,39.325863 165.48068,39.532903 162.14156,39.824263 C 155.2729,40.499933 152.87492,43.995773 152.87492,51.928693 L 152.87492,61.929363 L 173.03788,61.929363 L 173.03788,65.054893 L 142.2249,65.054893 C 132.71246,65.054893 124.13148,71.687033 121.20666,81.322183 C 117.84392,92.238913 117.49368,98.789513 121.20666,110.32121 C 123.97394,119.11373 130.29158,125.20844 139.80402,125.20844 L 150.4774,125.20844 L 150.4774,114.18129 C 150.4774,103.56115 159.61522,94.636473 172.15894,94.636473 L 193.44932,94.636473 C 203.85154,94.636473 212.13958,87.236383 212.13958,77.914583 L 212.13958,51.928693 C 212.13958,42.782653 203.7226,36.430573 193.44932,34.919543 C 186.97722,33.963523 180.50513,34.179523 172.15894,34.919543 z M 153.7595,48.626953 C 156.76658,48.626953 159.20254,51.062913 159.20254,54.069993 C 159.20254,57.077123 156.76658,59.513083 153.7595,59.513083 C 150.75241,59.513083 148.31646,57.077123 148.31646,54.069993 C 148.31646,51.062913 150.75241,48.626953 153.7595,48.626953 z" fill="#306998"/>
    <!-- Parte amarilla -->
    <path d="M 212.13958,77.914583 C 212.13958,88.534723 203.00176,97.459403 190.45804,97.459403 L 169.16766,97.459403 C 158.76544,97.459403 150.4774,104.85949 150.4774,114.18129 L 150.4774,140.16718 C 150.4774,149.31322 159.02878,154.06683 169.16766,156.18517 C 181.7971,158.78395 193.8974,157.43127 203.85154,156.18517 C 210.50106,155.28695 212.13958,151.0433 212.13958,140.16718 L 212.13958,130.16651 L 190.45804,130.16651 L 190.45804,134.1664 L 221.27102,134.1664 C 230.78346,134.1664 234.19796,127.79179 237.47892,117.56119 C 240.8667,106.8161 240.66134,96.741693 237.47892,85.591453 C 235.0312,77.089193 230.78346,71.896283 221.27102,71.896283 L 212.13958,71.896283 L 212.13958,77.914583 z M 208.01884,112.60766 C 211.02592,112.60766 213.46188,115.04362 213.46188,118.0507 C 213.46188,121.05778 211.02592,123.49374 208.01884,123.49374 C 205.01176,123.49374 202.5758,121.05778 202.5758,118.0507 C 202.5758,115.04362 205.01176,112.60766 208.01884,112.60766 z" fill="#FFD43B"/>
  </g>
  
  <!-- Texto "Python" -->
  <text x="300" y="300" font-family="Arial, sans-serif" font-size="60" font-weight="bold" text-anchor="middle" fill="white">Python</text>
</svg>